# xmcd
#
# Track frame offsets:
#	150
#	10035
#	18437
#	31355
#	42545
#	51070
#	60498
#	67599
#	76927
#
# Disc length: 1136 seconds
# Revision: 0
# Processed by: cddbd v1.5.2PL0 Copyright (c) Steve Scherf et al.
# Submitted via: dBpowerAMP V12.0
#
DISCID=61046e09
DTITLE=Jerry Lee Lewis   - Rockin' With Jerry Lee Lewis
DYEAR=1900
DGENRE=
TTITLE0=Bonnie B
TTITLE1=Lewis Boogie
TTITLE2=I'll Make It Up To You
TTITLE3=It Hurt Me So
TTITLE4=This Is Our Love
TTITLE5=I'm Looking For My Baby
TTITLE6=Crying All Alone
TTITLE7=You've Got It
TTITLE8=Man, Go
EXTD=
EXTT0=
EXTT1=
EXTT2=
EXTT3=
EXTT4=
EXTT5=
EXTT6=
EXTT7=
EXTT8=
PLAYORDER=
